{
    "asset" : {
        "generator" : "Khronos glTF Blender I/O v1.8.19",
        "version" : "2.0"
    },
    "scene" : 0,
    "scenes" : [
        {
            "name" : "Scene",
            "nodes" : [
                0,
                1,
                2
            ]
        }
    ],
    "nodes" : [
        {
            "mesh" : 0,
            "name" : "Plane.001",
            "rotation" : [
                -0.007372729945927858,
                0.6589398980140686,
                0.5878207087516785,
                0.4692661464214325
            ],
            "translation" : [
                -6.357855796813965,
                7.454880714416504,
                5.744119644165039
            ]
        },
        {
            "mesh" : 1,
            "name" : "Plane",
            "rotation" : [
                -0.42384612560272217,
                -0.3798885643482208,
                -0.14885187149047852,
                0.8086298704147339
            ],
            "translation" : [
                6.614667892456055,
                6.536500930786133,
                -4.137725353240967
            ]
        },
        {
            "mesh" : 2,
            "name" : "Small Space Fighter"
        }
    ],
    "materials" : [
        {
            "doubleSided" : true,
            "emissiveFactor" : [
                1,
                1,
                1
            ],
            "name" : "Emission",
            "pbrMetallicRoughness" : {}
        },
        {
            "doubleSided" : true,
            "name" : "HullPlain.002",
            "pbrMetallicRoughness" : {}
        },
        {
            "doubleSided" : true,
            "name" : "HullColor.002",
            "pbrMetallicRoughness" : {}
        },
        {
            "doubleSided" : true,
            "name" : "CockpitGlass.002",
            "pbrMetallicRoughness" : {}
        },
        {
            "doubleSided" : true,
            "emissiveFactor" : [
                1,
                1,
                1
            ],
            "name" : "Engine.002",
            "pbrMetallicRoughness" : {}
        }
    ],
    "meshes" : [
        {
            "name" : "Plane.001",
            "primitives" : [
                {
                    "attributes" : {
                        "POSITION" : 0,
                        "NORMAL" : 1
                    },
                    "indices" : 2,
                    "material" : 0
                }
            ]
        },
        {
            "name" : "Plane",
            "primitives" : [
                {
                    "attributes" : {
                        "POSITION" : 3,
                        "NORMAL" : 4
                    },
                    "indices" : 2,
                    "material" : 0
                }
            ]
        },
        {
            "name" : "Cube",
            "primitives" : [
                {
                    "attributes" : {
                        "POSITION" : 5,
                        "NORMAL" : 6
                    },
                    "indices" : 7,
                    "material" : 1
                },
                {
                    "attributes" : {
                        "POSITION" : 8,
                        "NORMAL" : 9
                    },
                    "indices" : 10,
                    "material" : 2
                },
                {
                    "attributes" : {
                        "POSITION" : 11,
                        "NORMAL" : 12
                    },
                    "indices" : 13,
                    "material" : 3
                },
                {
                    "attributes" : {
                        "POSITION" : 14,
                        "NORMAL" : 15
                    },
                    "indices" : 16,
                    "material" : 4
                }
            ]
        }
    ],
    "accessors" : [
        {
            "bufferView" : 0,
            "componentType" : 5126,
            "count" : 4,
            "max" : [
                1,
                0,
                1
            ],
            "min" : [
                -1,
                0,
                -1
            ],
            "type" : "VEC3"
        },
        {
            "bufferView" : 1,
            "componentType" : 5126,
            "count" : 4,
            "type" : "VEC3"
        },
        {
            "bufferView" : 2,
            "componentType" : 5123,
            "count" : 6,
            "type" : "SCALAR"
        },
        {
            "bufferView" : 3,
            "componentType" : 5126,
            "count" : 4,
            "max" : [
                1,
                0,
                1
            ],
            "min" : [
                -1,
                0,
                -1
            ],
            "type" : "VEC3"
        },
        {
            "bufferView" : 4,
            "componentType" : 5126,
            "count" : 4,
            "type" : "VEC3"
        },
        {
            "bufferView" : 5,
            "componentType" : 5126,
            "count" : 5129,
            "max" : [
                3.4744489192962646,
                1.0013132095336914,
                1.5094478130340576
            ],
            "min" : [
                -3.4744489192962646,
                -0.46281930804252625,
                -4.131901741027832
            ],
            "type" : "VEC3"
        },
        {
            "bufferView" : 6,
            "componentType" : 5126,
            "count" : 5129,
            "type" : "VEC3"
        },
        {
            "bufferView" : 7,
            "componentType" : 5123,
            "count" : 26292,
            "type" : "SCALAR"
        },
        {
            "bufferView" : 8,
            "componentType" : 5126,
            "count" : 3092,
            "max" : [
                3.4744489192962646,
                0.9769854545593262,
                1.6777701377868652
            ],
            "min" : [
                -3.4744489192962646,
                -0.4471733570098877,
                -4.117008686065674
            ],
            "type" : "VEC3"
        },
        {
            "bufferView" : 9,
            "componentType" : 5126,
            "count" : 3092,
            "type" : "VEC3"
        },
        {
            "bufferView" : 10,
            "componentType" : 5123,
            "count" : 13866,
            "type" : "SCALAR"
        },
        {
            "bufferView" : 11,
            "componentType" : 5126,
            "count" : 9,
            "max" : [
                0.7049897909164429,
                0.9926078915596008,
                -0.6848985552787781
            ],
            "min" : [
                -0.7049897909164429,
                0.4388130307197571,
                -2.6473441123962402
            ],
            "type" : "VEC3"
        },
        {
            "bufferView" : 12,
            "componentType" : 5126,
            "count" : 9,
            "type" : "VEC3"
        },
        {
            "bufferView" : 13,
            "componentType" : 5123,
            "count" : 24,
            "type" : "SCALAR"
        },
        {
            "bufferView" : 14,
            "componentType" : 5126,
            "count" : 192,
            "max" : [
                0.897662878036499,
                0.9459372758865356,
                1.0445424318313599
            ],
            "min" : [
                -0.897662878036499,
                0.41217148303985596,
                1.0445417165756226
            ],
            "type" : "VEC3"
        },
        {
            "bufferView" : 15,
            "componentType" : 5126,
            "count" : 192,
            "type" : "VEC3"
        },
        {
            "bufferView" : 16,
            "componentType" : 5123,
            "count" : 576,
            "type" : "SCALAR"
        }
    ],
    "bufferViews" : [
        {
            "buffer" : 0,
            "byteLength" : 48,
            "byteOffset" : 0
        },
        {
            "buffer" : 0,
            "byteLength" : 48,
            "byteOffset" : 48
        },
        {
            "buffer" : 0,
            "byteLength" : 12,
            "byteOffset" : 96
        },
        {
            "buffer" : 0,
            "byteLength" : 48,
            "byteOffset" : 108
        },
        {
            "buffer" : 0,
            "byteLength" : 48,
            "byteOffset" : 156
        },
        {
            "buffer" : 0,
            "byteLength" : 61548,
            "byteOffset" : 204
        },
        {
            "buffer" : 0,
            "byteLength" : 61548,
            "byteOffset" : 61752
        },
        {
            "buffer" : 0,
            "byteLength" : 52584,
            "byteOffset" : 123300
        },
        {
            "buffer" : 0,
            "byteLength" : 37104,
            "byteOffset" : 175884
        },
        {
            "buffer" : 0,
            "byteLength" : 37104,
            "byteOffset" : 212988
        },
        {
            "buffer" : 0,
            "byteLength" : 27732,
            "byteOffset" : 250092
        },
        {
            "buffer" : 0,
            "byteLength" : 108,
            "byteOffset" : 277824
        },
        {
            "buffer" : 0,
            "byteLength" : 108,
            "byteOffset" : 277932
        },
        {
            "buffer" : 0,
            "byteLength" : 48,
            "byteOffset" : 278040
        },
        {
            "buffer" : 0,
            "byteLength" : 2304,
            "byteOffset" : 278088
        },
        {
            "buffer" : 0,
            "byteLength" : 2304,
            "byteOffset" : 280392
        },
        {
            "buffer" : 0,
            "byteLength" : 1152,
            "byteOffset" : 282696
        }
    ],
    "buffers" : [
        {
            "byteLength" : 283848,
            "uri" : "SmallSpaceFighter.bin"
        }
    ]
}
